<?xml version="1.0"?>
<svg xmlns="http://www.w3.org/2000/svg" width="512" height="512" viewBox="0 0 128 128"><g><path d="M83.766,34.233a1.753,1.753,0,0,0-.1-1.909l-6.956-9.5,6.956-9.5a1.751,1.751,0,0,0,.1-1.908,1.729,1.729,0,0,0-1.706-.864L70.352,11.819,65.6,1.043a1.751,1.751,0,0,0-3.2,0L57.647,11.819,45.939,10.546a1.727,1.727,0,0,0-1.7.864,1.751,1.751,0,0,0,.1,1.908l6.956,9.5-6.956,9.5a1.751,1.751,0,0,0,1.6,2.775l11.708-1.274L62.4,44.6a1.751,1.751,0,0,0,3.2,0l4.75-10.777L82.06,35.1A1.754,1.754,0,0,0,83.766,34.233ZM69.458,30.207a1.754,1.754,0,0,0-1.791,1.034L64,39.558l-3.667-8.317a1.752,1.752,0,0,0-1.6-1.044,1.728,1.728,0,0,0-.19.01l-9.036.983,5.369-7.334a1.751,1.751,0,0,0,0-2.067l-5.369-7.335,9.036.982A1.744,1.744,0,0,0,60.333,14.4L64,6.087,67.667,14.4a1.741,1.741,0,0,0,1.791,1.033l9.036-.982-5.369,7.335a1.751,1.751,0,0,0,0,2.067l5.369,7.334Z"/><path d="M126.956,55.178,116.18,50.427l1.273-11.708a1.751,1.751,0,0,0-2.774-1.6l-9.5,6.956-9.5-6.956a1.75,1.75,0,0,0-2.773,1.6l1.274,11.708L83.4,55.178a1.75,1.75,0,0,0,0,3.2l10.777,4.75L92.9,74.84a1.75,1.75,0,0,0,2.774,1.6l9.5-6.957,9.5,6.957a1.75,1.75,0,0,0,2.774-1.6L116.18,63.132l10.776-4.751a1.75,1.75,0,0,0,0-3.2ZM113.6,60.445a1.751,1.751,0,0,0-1.035,1.791l.983,9.036L106.211,65.9a1.75,1.75,0,0,0-2.068,0l-7.334,5.369.982-9.036a1.75,1.75,0,0,0-1.033-1.791l-8.317-3.666,8.317-3.667a1.748,1.748,0,0,0,1.033-1.791l-.982-9.036,7.335,5.369a1.748,1.748,0,0,0,2.067,0l7.333-5.369-.983,9.036a1.75,1.75,0,0,0,1.035,1.791l8.316,3.667Z"/><path d="M44.6,58.381a1.75,1.75,0,0,0,0-3.2L33.826,50.427,35.1,38.719a1.75,1.75,0,0,0-2.773-1.6l-9.5,6.956-9.5-6.956a1.751,1.751,0,0,0-2.774,1.6L11.82,50.427,1.044,55.178a1.75,1.75,0,0,0,0,3.2L11.82,63.132,10.547,74.84a1.75,1.75,0,0,0,2.774,1.6l9.5-6.957,9.5,6.957a1.75,1.75,0,0,0,2.774-1.6L33.826,63.131Zm-13.36,2.064a1.75,1.75,0,0,0-1.033,1.791l.982,9.036L23.857,65.9a1.751,1.751,0,0,0-2.068,0l-7.333,5.369.982-9.036A1.752,1.752,0,0,0,14.4,60.445L6.088,56.779,14.4,53.112a1.75,1.75,0,0,0,1.034-1.791l-.982-9.036,7.333,5.369a1.748,1.748,0,0,0,2.067,0l7.335-5.369-.982,9.036a1.748,1.748,0,0,0,1.033,1.791l8.317,3.667Z"/><path d="M64,101.689a1.749,1.749,0,0,0-1.75,1.75v22.81a1.75,1.75,0,0,0,3.5,0v-22.81A1.749,1.749,0,0,0,64,101.689Z"/><path d="M64,84.251A1.749,1.749,0,0,0,62.25,86v7.125a1.75,1.75,0,0,0,3.5,0V86A1.749,1.749,0,0,0,64,84.251Z"/><path d="M64,51.214a1.749,1.749,0,0,0-1.75,1.75V75.689a1.75,1.75,0,0,0,3.5,0V52.964A1.749,1.749,0,0,0,64,51.214Z"/><path d="M80.98,105.218a1.755,1.755,0,0,0-2.084,1.336,82.585,82.585,0,0,0-1.9,17.607v2.09a1.75,1.75,0,0,0,3.5,0v-2.09A78.968,78.968,0,0,1,82.316,107.3,1.75,1.75,0,0,0,80.98,105.218Z"/><path d="M90.416,82.345a1.75,1.75,0,0,0-2.391.64,82.681,82.681,0,0,0-6,12.819,1.75,1.75,0,0,0,3.285,1.2,79.18,79.18,0,0,1,5.743-12.274A1.75,1.75,0,0,0,90.416,82.345Z"/><path d="M47.019,105.218a1.75,1.75,0,0,0-1.335,2.084,79.032,79.032,0,0,1,1.824,16.859v2.09a1.75,1.75,0,0,0,3.5,0v-2.09A82.522,82.522,0,0,0,49.1,106.554,1.75,1.75,0,0,0,47.019,105.218Z"/><path d="M45.971,95.8a82.681,82.681,0,0,0-6-12.819,1.75,1.75,0,0,0-3.032,1.75,79.083,79.083,0,0,1,5.742,12.274,1.75,1.75,0,0,0,3.286-1.2Z"/><path d="M31.574,98.817l-7.983-1.16L20.02,90.424a1.749,1.749,0,0,0-3.138,0l-3.571,7.233-7.983,1.16a1.751,1.751,0,0,0-.97,2.985l5.778,5.632-1.365,7.95a1.749,1.749,0,0,0,2.539,1.844l7.141-3.753,7.141,3.753a1.749,1.749,0,0,0,2.539-1.844l-1.364-7.95,5.777-5.632a1.751,1.751,0,0,0-.97-2.985Zm-7.909,6.752a1.751,1.751,0,0,0-.5,1.549l.92,5.362-4.816-2.531a1.751,1.751,0,0,0-1.629,0L12.82,112.48l.92-5.362a1.751,1.751,0,0,0-.5-1.549l-3.9-3.8,5.385-.783a1.747,1.747,0,0,0,1.317-.957l2.408-4.879,2.408,4.879a1.747,1.747,0,0,0,1.318.957l5.384.783Z"/><path d="M122.672,98.817l-7.984-1.16-3.57-7.233a1.75,1.75,0,0,0-3.139,0l-3.57,7.233-7.983,1.16a1.751,1.751,0,0,0-.97,2.985l5.777,5.632-1.364,7.95a1.749,1.749,0,0,0,2.539,1.844l7.141-3.753,7.14,3.753a1.749,1.749,0,0,0,2.539-1.844l-1.364-7.95,5.778-5.632a1.751,1.751,0,0,0-.97-2.985Zm-7.909,6.752a1.751,1.751,0,0,0-.5,1.549l.92,5.362-4.817-2.531a1.751,1.751,0,0,0-1.629,0l-4.816,2.531.92-5.362a1.754,1.754,0,0,0-.5-1.549l-3.9-3.8,5.385-.783a1.747,1.747,0,0,0,1.318-.957l2.408-4.879,2.408,4.879a1.747,1.747,0,0,0,1.317.957l5.385.783Z"/></g></svg>
