<?xml version="1.0" encoding="iso-8859-1"?>
<!-- Generator: Adobe Illustrator 19.0.0, SVG Export Plug-In . SVG Version: 6.00 Build 0)  -->
<svg version="1.1" id="Capa_1" xmlns="http://www.w3.org/2000/svg" xmlns:xlink="http://www.w3.org/1999/xlink" x="0px" y="0px"
	 viewBox="0 0 512.001 512.001" style="enable-background:new 0 0 512.001 512.001;" xml:space="preserve">
<g>
	<g>
		<path d="M511.07,234.074c-5.126-59.969-31.422-116.467-74.045-159.091C388.672,26.632,324.384,0.002,256.003,0.002
			c-68.382,0-132.67,26.629-181.022,74.981C26.629,123.337,0,187.625,0,256.005c0,68.381,26.629,132.669,74.981,181.021
			c41.849,41.849,97.279,68.048,156.082,73.771c8.252,0.804,16.514,1.201,24.761,1.201c49.718,0,98.772-14.46,140.34-41.708
			c4.619-3.028,5.908-9.227,2.881-13.846c-3.028-4.618-9.225-5.91-13.846-2.881c-92.891,60.89-217.411,47.988-296.075-30.678
			C44.549,378.31,20,319.043,20,256.005c0-63.039,24.548-122.305,69.124-166.879c44.575-44.576,103.84-69.124,166.879-69.124
			c63.038,0,122.304,24.548,166.88,69.123c80.663,80.664,92.205,207.2,27.445,300.878c-3.141,4.543-2.004,10.771,2.539,13.912
			c4.542,3.142,10.772,2.005,13.912-2.539C500.406,352.735,516.135,293.32,511.07,234.074z"/>
	</g>
</g>
<g>
	<g>
		<path d="M438.363,421.51c-3.475-3.463-9.755-4.361-14.249,0.132c-0.017,0.017-0.033,0.034-0.05,0.051
			c-4.461,4.524-3.518,10.798-0.03,14.249c1.82,1.8,4.399,2.899,7.087,2.899c2.465,0,5.021-0.925,7.162-3.081
			C442.759,431.251,441.84,424.974,438.363,421.51z"/>
	</g>
</g>
<g>
	<g>
		<path d="M408.738,103.269c-40.797-40.797-95.041-63.266-152.737-63.266s-111.939,22.468-152.737,63.266
			s-63.266,95.04-63.266,152.737c0,57.697,22.468,111.939,63.266,152.737s95.041,63.266,152.737,63.266
			s111.939-22.468,152.737-63.266c40.797-40.797,63.266-95.041,63.266-152.737C472.004,198.31,449.535,144.066,408.738,103.269z
			 M256.001,452.009c-108.076,0-196.002-87.926-196.002-196.002S147.925,60.004,256.001,60.004s196.002,87.926,196.002,196.002
			S364.077,452.009,256.001,452.009z"/>
	</g>
</g>
<g>
	<g>
		<path d="M186.682,169.829c-3.448-3.476-9.717-4.414-14.234,0.036c-4.519,4.45-3.679,10.732-0.256,14.234
			c1.824,1.868,4.454,3.019,7.203,3.019c2.408,0,4.906-0.884,7.032-2.946c0.036-0.036,0.073-0.072,0.109-0.108
			C191.02,179.58,190.132,173.305,186.682,169.829z"/>
	</g>
</g>
<g>
	<g>
		<path d="M340.85,171.154c-33.78-33.781-84.341-44.315-128.814-26.836c-5.139,2.02-7.669,7.825-5.648,12.965
			c2.02,5.14,7.824,7.669,12.965,5.649c37.06-14.569,79.203-5.789,107.354,22.364c18.888,18.887,29.29,44,29.29,70.711
			c0,26.711-10.402,51.824-29.29,70.711c-38.991,38.991-102.433,38.989-141.423,0c-29.148-29.148-37.451-72.444-21.151-110.3
			c2.185-5.072-0.157-10.955-5.229-13.139c-5.074-2.185-10.956,0.158-13.14,5.23c-9.392,21.812-12.091,45.733-7.806,69.176
			c4.39,24.011,15.865,45.858,33.184,63.177c23.398,23.397,54.122,35.094,84.855,35.091c30.726-0.003,61.462-11.701,84.852-35.09
			c22.665-22.665,35.147-52.801,35.147-84.854C375.997,223.954,363.515,193.82,340.85,171.154z"/>
	</g>
</g>
<g>
	<g>
		<path d="M256.001,178.004c-43.01,0-78.001,34.99-78.001,78.001c0,43.01,34.99,78.001,78.001,78.001s78.001-34.991,78.001-78.001
			C334.002,212.996,299.012,178.004,256.001,178.004z M256.001,314.007c-31.981,0-58.001-26.019-58.001-58.001
			c0-31.981,26.019-58.001,58.001-58.001s58.001,26.018,58.001,58.001C314.002,287.988,287.982,314.007,256.001,314.007z"/>
	</g>
</g>
<g>
	<g>
		<path d="M256.001,68.004c-16.542,0-30,13.458-30,30c0,16.542,13.458,30,30,30c16.542,0,30-13.458,30-30
			C286.001,81.462,272.543,68.004,256.001,68.004z M256.001,108.005c-5.514,0-10-4.486-10-10c0-5.514,4.486-10,10-10
			c5.514,0,10,4.486,10,10C266.001,103.519,261.515,108.005,256.001,108.005z"/>
	</g>
</g>
<g>
	<g>
		<path d="M256.001,384.007c-16.542,0-30,13.458-30,30s13.458,30,30,30c16.542,0,30-13.458,30-30S272.543,384.007,256.001,384.007z
			 M256.001,424.007c-5.514,0-10-4.486-10-10s4.486-10,10-10c5.514,0,10,4.486,10,10S261.515,424.007,256.001,424.007z"/>
	</g>
</g>
<g>
	<g>
		<path d="M165.49,123.068c-11.698-11.697-30.731-11.695-42.427,0c-11.696,11.698-11.696,30.73,0,42.427
			c5.849,5.848,13.531,8.772,21.214,8.772c7.682,0,15.365-2.924,21.213-8.772C177.186,153.797,177.186,134.765,165.49,123.068z
			 M151.347,151.353c-1.888,1.889-4.399,2.929-7.071,2.929c-2.671,0-5.181-1.04-7.07-2.929s-2.93-4.4-2.93-7.071
			c0-2.671,1.041-5.182,2.93-7.071c1.888-1.889,4.399-2.929,7.07-2.929c2.672,0,5.183,1.04,7.071,2.929
			c1.889,1.889,2.929,4.4,2.929,7.071C154.276,146.953,153.236,149.464,151.347,151.353z"/>
	</g>
</g>
<g>
	<g>
		<path d="M388.94,346.516c-11.697-11.696-30.729-11.697-42.427,0c-11.696,11.698-11.696,30.73,0,42.427
			c5.849,5.848,13.531,8.772,21.213,8.772c7.682,0,15.365-2.924,21.214-8.772C400.636,377.246,400.636,358.214,388.94,346.516z
			 M374.796,374.801c-1.888,1.889-4.399,2.93-7.07,2.93c-2.672,0-5.182-1.042-7.071-2.93c-1.889-1.888-2.929-4.399-2.929-7.07
			c0-2.672,1.041-5.182,2.929-7.071c1.888-1.889,4.399-2.929,7.071-2.929c2.671,0,5.181,1.041,7.07,2.929
			c1.889,1.888,2.93,4.399,2.93,7.071C377.726,370.402,376.684,372.912,374.796,374.801z"/>
	</g>
</g>
<g>
	<g>
		<path d="M97.999,226.005c-16.542,0-30,13.458-30,30c0,16.542,13.458,30,30,30c16.542,0,30-13.458,30-30
			C128,239.463,114.541,226.005,97.999,226.005z M97.999,266.006c-5.514,0-10-4.486-10-10c0-5.514,4.486-10,10-10
			c5.514,0,10,4.485,10,10C107.999,261.521,103.513,266.006,97.999,266.006z"/>
	</g>
</g>
<g>
	<g>
		<path d="M414.003,226.005c-16.542,0-30,13.458-30,30c0,16.542,13.458,30,30,30c16.542,0,30-13.458,30-30
			C444.003,239.463,430.545,226.005,414.003,226.005z M414.003,266.006c-5.514,0-10-4.486-10-10c0-5.514,4.486-10,10-10
			s10,4.485,10,10C424.003,261.521,419.517,266.006,414.003,266.006z"/>
	</g>
</g>
<g>
	<g>
		<path d="M165.49,346.516c-11.698-11.698-30.731-11.696-42.427,0c-11.696,11.698-11.696,30.73,0,42.427
			c5.849,5.848,13.531,8.772,21.214,8.772c7.682,0,15.365-2.924,21.213-8.772C177.186,377.246,177.186,358.214,165.49,346.516z
			 M151.347,374.801c-1.888,1.889-4.399,2.93-7.071,2.93c-2.671,0-5.181-1.042-7.07-2.93c-1.889-1.888-2.93-4.399-2.93-7.07
			c0-2.672,1.042-5.182,2.93-7.071c1.888-1.889,4.399-2.929,7.07-2.929c2.672,0,5.182,1.041,7.071,2.929
			c1.889,1.888,2.929,4.399,2.929,7.071C154.276,370.402,153.235,372.912,151.347,374.801z"/>
	</g>
</g>
<g>
	<g>
		<path d="M388.94,123.068c-11.697-11.695-30.729-11.697-42.427,0c-11.696,11.698-11.696,30.73,0,42.427
			c5.849,5.848,13.531,8.772,21.213,8.772c7.682,0,15.365-2.924,21.214-8.772C400.636,153.797,400.636,134.765,388.94,123.068z
			 M374.796,151.353c-1.888,1.889-4.399,2.929-7.07,2.929c-2.672,0-5.182-1.04-7.071-2.929c-1.889-1.889-2.929-4.4-2.929-7.071
			c0-2.671,1.04-5.182,2.929-7.071c1.888-1.889,4.399-2.929,7.071-2.929c2.671,0,5.181,1.04,7.07,2.929
			c1.889,1.889,2.93,4.4,2.93,7.071C377.726,146.953,376.685,149.464,374.796,151.353z"/>
	</g>
</g>
<g>
</g>
<g>
</g>
<g>
</g>
<g>
</g>
<g>
</g>
<g>
</g>
<g>
</g>
<g>
</g>
<g>
</g>
<g>
</g>
<g>
</g>
<g>
</g>
<g>
</g>
<g>
</g>
<g>
</g>
</svg>
